# xmcd
#
# Track frame offsets:
# 150
# 14426
# 28424
# 48701
# 58225
# 76526
# 90202
# 106327
# 127871
# 141525
# 154167
# 173721
# 182382
# 195714
# 219251
# 233749
# 247825
# 258816
# 268565
# 276304
# 290116
#
# Disc length: 4096 seconds
#
#
# Revision: 0
# Processed by: cddbd v1.5.2PL0 Copyright (c) Steve Scherf et al.
# Submitted via: FreeRIP 2.951 
#
DISCID=230ffe15
DTITLE=ZÉZO - FORRÓ DO ZÉZO
DYEAR=0091
DGENRE=FORRÓ
TTITLE0=LAMENTO DE UM SERTANEJO
TTITLE1=SEU OLHAR NÃO MENTE
TTITLE2=MELHOR SÓ QUE MAL ACOMPANHADO
TTITLE3=LOUCURAS DE AMÔR
TTITLE4=EU TE AMO FORTALEZA
TTITLE5=JEITO MAROTO
TTITLE6=DESENCONTRO DE PRIMAVERA
TTITLE7=DIGA PRÁ MIM
TTITLE8=ZÉ DO ROCK
TTITLE9=POUT PURRI A) RESPEITA JANUARIO B) FORRO NO ESCURO
TTITLE10=POUT PORRI A) QUEBRA TORPETE B) VELHO CUCA
TTITLE11=BAIÃO DA SAUDADE
TTITLE12=VOCE PODE ME PERDER
TTITLE13=AMOR SEM LIMITE
TTITLE14=COM VOCÊ NO CORAÇÃO
TTITLE15=PINGA NI MIM
TTITLE16=SEGREDOS
TTITLE17=É MOLE OU QUER MAIS
TTITLE18=BULIR COM TÚ
TTITLE19=DOIS RUBIS " ED DESC "
TTITLE20=FAZ DE CONTA ( L' ITALIANO )
EXTD=
EXTT0=
EXTT1=
EXTT2=
EXTT3=
EXTT4=
EXTT5=
EXTT6=
EXTT7=
EXTT8=
EXTT9=
EXTT10=
EXTT11=
EXTT12=
EXTT13=
EXTT14=
EXTT15=
EXTT16=
EXTT17=
EXTT18=
EXTT19=
EXTT20=
PLAYORDER=
